0
SECTION
2
HEADER
9
$ACADVER
1
AC1009
9
$INSUNITS
70
4
0
ENDSEC
0
SECTION
2
TABLES
0
TABLE
2
LAYER
70
3
0
LAYER
2
CUT_OUTER
70
0
62
7
6
CONTINUOUS
0
LAYER
2
CUT_SLOT
70
0
62
1
6
CONTINUOUS
0
LAYER
2
CUT_HOLE
70
0
62
5
6
CONTINUOUS
0
ENDTAB
0
ENDSEC
0
SECTION
2
ENTITIES
0
POLYLINE
8
CUT_OUTER
66
1
70
1
0
VERTEX
8
CUT_OUTER
10
0
20
0
30
0
0
VERTEX
8
CUT_OUTER
10
95
20
0
30
0
0
VERTEX
8
CUT_OUTER
10
99.372
20
0.185
30
0
0
VERTEX
8
CUT_OUTER
10
103.472
20
0.727
30
0
0
VERTEX
8
CUT_OUTER
10
107.281
20
1.609
30
0
0
VERTEX
8
CUT_OUTER
10
110.778
20
2.815
30
0
0
VERTEX
8
CUT_OUTER
10
113.941
20
4.326
30
0
0
VERTEX
8
CUT_OUTER
10
116.75
20
6.125
30
0
0
VERTEX
8
CUT_OUTER
10
119.184
20
8.195
30
0
0
VERTEX
8
CUT_OUTER
10
121.222
20
10.519
30
0
0
VERTEX
8
CUT_OUTER
10
122.844
20
13.078
30
0
0
VERTEX
8
CUT_OUTER
10
124.028
20
15.856
30
0
0
VERTEX
8
CUT_OUTER
10
124.753
20
18.836
30
0
0
VERTEX
8
CUT_OUTER
10
125
20
22
30
0
0
VERTEX
8
CUT_OUTER
10
124.796
20
24.973
30
0
0
VERTEX
8
CUT_OUTER
10
124.199
20
27.87
30
0
0
VERTEX
8
CUT_OUTER
10
123.234
20
30.656
30
0
0
VERTEX
8
CUT_OUTER
10
121.926
20
33.296
30
0
0
VERTEX
8
CUT_OUTER
10
120.298
20
35.756
30
0
0
VERTEX
8
CUT_OUTER
10
118.375
20
38
30
0
0
VERTEX
8
CUT_OUTER
10
116.181
20
39.994
30
0
0
VERTEX
8
CUT_OUTER
10
113.741
20
41.704
30
0
0
VERTEX
8
CUT_OUTER
10
111.078
20
43.094
30
0
0
VERTEX
8
CUT_OUTER
10
108.218
20
44.13
30
0
0
VERTEX
8
CUT_OUTER
10
105.183
20
44.777
30
0
0
VERTEX
8
CUT_OUTER
10
102
20
45
30
0
0
VERTEX
8
CUT_OUTER
10
94
20
45
30
0
0
VERTEX
8
CUT_OUTER
10
92.083
20
44.898
30
0
0
VERTEX
8
CUT_OUTER
10
90.333
20
44.597
30
0
0
VERTEX
8
CUT_OUTER
10
88.75
20
44.109
30
0
0
VERTEX
8
CUT_OUTER
10
87.333
20
43.444
30
0
0
VERTEX
8
CUT_OUTER
10
86.083
20
42.613
30
0
0
VERTEX
8
CUT_OUTER
10
85
20
41.625
30
0
0
VERTEX
8
CUT_OUTER
10
84.083
20
40.491
30
0
0
VERTEX
8
CUT_OUTER
10
83.333
20
39.222
30
0
0
VERTEX
8
CUT_OUTER
10
82.75
20
37.828
30
0
0
VERTEX
8
CUT_OUTER
10
82.333
20
36.319
30
0
0
VERTEX
8
CUT_OUTER
10
82.083
20
34.707
30
0
0
VERTEX
8
CUT_OUTER
10
82
20
33
30
0
0
VERTEX
8
CUT_OUTER
10
82
20
30
30
0
0
VERTEX
8
CUT_OUTER
10
81.939
20
29.042
30
0
0
VERTEX
8
CUT_OUTER
10
81.759
20
28.167
30
0
0
VERTEX
8
CUT_OUTER
10
81.469
20
27.375
30
0
0
VERTEX
8
CUT_OUTER
10
81.074
20
26.667
30
0
0
VERTEX
8
CUT_OUTER
10
80.582
20
26.042
30
0
0
VERTEX
8
CUT_OUTER
10
80
20
25.5
30
0
0
VERTEX
8
CUT_OUTER
10
79.334
20
25.042
30
0
0
VERTEX
8
CUT_OUTER
10
78.593
20
24.667
30
0
0
VERTEX
8
CUT_OUTER
10
77.781
20
24.375
30
0
0
VERTEX
8
CUT_OUTER
10
76.907
20
24.167
30
0
0
VERTEX
8
CUT_OUTER
10
75.978
20
24.042
30
0
0
VERTEX
8
CUT_OUTER
10
75
20
24
30
0
0
VERTEX
8
CUT_OUTER
10
28
20
24
30
0
0
VERTEX
8
CUT_OUTER
10
26.543
20
24.082
30
0
0
VERTEX
8
CUT_OUTER
10
25.176
20
24.324
30
0
0
VERTEX
8
CUT_OUTER
10
23.906
20
24.719
30
0
0
VERTEX
8
CUT_OUTER
10
22.741
20
25.259
30
0
0
VERTEX
8
CUT_OUTER
10
21.686
20
25.939
30
0
0
VERTEX
8
CUT_OUTER
10
20.75
20
26.75
30
0
0
VERTEX
8
CUT_OUTER
10
19.939
20
27.686
30
0
0
VERTEX
8
CUT_OUTER
10
19.259
20
28.741
30
0
0
VERTEX
8
CUT_OUTER
10
18.719
20
29.906
30
0
0
VERTEX
8
CUT_OUTER
10
18.324
20
31.176
30
0
0
VERTEX
8
CUT_OUTER
10
18.082
20
32.543
30
0
0
VERTEX
8
CUT_OUTER
10
18
20
34
30
0
0
VERTEX
8
CUT_OUTER
10
18
20
37
30
0
0
VERTEX
8
CUT_OUTER
10
17.938
20
38.208
30
0
0
VERTEX
8
CUT_OUTER
10
17.755
20
39.329
30
0
0
VERTEX
8
CUT_OUTER
10
17.453
20
40.359
30
0
0
VERTEX
8
CUT_OUTER
10
17.037
20
41.296
30
0
0
VERTEX
8
CUT_OUTER
10
16.51
20
42.136
30
0
0
VERTEX
8
CUT_OUTER
10
15.875
20
42.875
30
0
0
VERTEX
8
CUT_OUTER
10
15.136
20
43.51
30
0
0
VERTEX
8
CUT_OUTER
10
14.296
20
44.037
30
0
0
VERTEX
8
CUT_OUTER
10
13.359
20
44.453
30
0
0
VERTEX
8
CUT_OUTER
10
12.329
20
44.755
30
0
0
VERTEX
8
CUT_OUTER
10
11.208
20
44.938
30
0
0
VERTEX
8
CUT_OUTER
10
10
20
45
30
0
0
VERTEX
8
CUT_OUTER
10
0
20
45
30
0
0
SEQEND
8
CUT_OUTER
0
POLYLINE
8
CUT_SLOT
66
1
70
1
0
VERTEX
8
CUT_SLOT
10
113.213
20
16.106
30
0
0
VERTEX
8
CUT_SLOT
10
113.143
20
16.357
30
0
0
VERTEX
8
CUT_SLOT
10
113.011
20
16.582
30
0
0
VERTEX
8
CUT_SLOT
10
112.824
20
16.765
30
0
0
VERTEX
8
CUT_SLOT
10
112.597
20
16.894
30
0
0
VERTEX
8
CUT_SLOT
10
112.345
20
16.959
30
0
0
VERTEX
8
CUT_SLOT
10
112.083
20
16.957
30
0
0
VERTEX
8
CUT_SLOT
10
111.832
20
16.887
30
0
0
VERTEX
8
CUT_SLOT
10
111.607
20
16.754
30
0
0
VERTEX
8
CUT_SLOT
10
111.424
20
16.568
30
0
0
VERTEX
8
CUT_SLOT
10
111.295
20
16.341
30
0
0
VERTEX
8
CUT_SLOT
10
111.23
20
16.088
30
0
0
VERTEX
8
CUT_SLOT
10
111.232
20
15.827
30
0
0
VERTEX
8
CUT_SLOT
10
54.787
20
7.894
30
0
0
VERTEX
8
CUT_SLOT
10
54.857
20
7.643
30
0
0
VERTEX
8
CUT_SLOT
10
54.989
20
7.418
30
0
0
VERTEX
8
CUT_SLOT
10
55.176
20
7.235
30
0
0
VERTEX
8
CUT_SLOT
10
55.403
20
7.106
30
0
0
VERTEX
8
CUT_SLOT
10
55.655
20
7.041
30
0
0
VERTEX
8
CUT_SLOT
10
55.917
20
7.043
30
0
0
VERTEX
8
CUT_SLOT
10
56.168
20
7.113
30
0
0
VERTEX
8
CUT_SLOT
10
56.393
20
7.246
30
0
0
VERTEX
8
CUT_SLOT
10
56.576
20
7.432
30
0
0
VERTEX
8
CUT_SLOT
10
56.705
20
7.659
30
0
0
VERTEX
8
CUT_SLOT
10
56.77
20
7.912
30
0
0
VERTEX
8
CUT_SLOT
10
56.768
20
8.173
30
0
0
SEQEND
8
CUT_SLOT
0
POLYLINE
8
CUT_HOLE
66
1
70
1
0
VERTEX
8
CUT_HOLE
10
104
20
36
30
0
0
VERTEX
8
CUT_HOLE
10
103.991
20
36.131
30
0
0
VERTEX
8
CUT_HOLE
10
103.966
20
36.259
30
0
0
VERTEX
8
CUT_HOLE
10
103.924
20
36.383
30
0
0
VERTEX
8
CUT_HOLE
10
103.866
20
36.5
30
0
0
VERTEX
8
CUT_HOLE
10
103.793
20
36.609
30
0
0
VERTEX
8
CUT_HOLE
10
103.707
20
36.707
30
0
0
VERTEX
8
CUT_HOLE
10
103.609
20
36.793
30
0
0
VERTEX
8
CUT_HOLE
10
103.5
20
36.866
30
0
0
VERTEX
8
CUT_HOLE
10
103.383
20
36.924
30
0
0
VERTEX
8
CUT_HOLE
10
103.259
20
36.966
30
0
0
VERTEX
8
CUT_HOLE
10
103.131
20
36.991
30
0
0
VERTEX
8
CUT_HOLE
10
103
20
37
30
0
0
VERTEX
8
CUT_HOLE
10
102.869
20
36.991
30
0
0
VERTEX
8
CUT_HOLE
10
102.741
20
36.966
30
0
0
VERTEX
8
CUT_HOLE
10
102.617
20
36.924
30
0
0
VERTEX
8
CUT_HOLE
10
102.5
20
36.866
30
0
0
VERTEX
8
CUT_HOLE
10
102.391
20
36.793
30
0
0
VERTEX
8
CUT_HOLE
10
102.293
20
36.707
30
0
0
VERTEX
8
CUT_HOLE
10
102.207
20
36.609
30
0
0
VERTEX
8
CUT_HOLE
10
102.134
20
36.5
30
0
0
VERTEX
8
CUT_HOLE
10
102.076
20
36.383
30
0
0
VERTEX
8
CUT_HOLE
10
102.034
20
36.259
30
0
0
VERTEX
8
CUT_HOLE
10
102.009
20
36.131
30
0
0
VERTEX
8
CUT_HOLE
10
102
20
36
30
0
0
VERTEX
8
CUT_HOLE
10
102.009
20
35.869
30
0
0
VERTEX
8
CUT_HOLE
10
102.034
20
35.741
30
0
0
VERTEX
8
CUT_HOLE
10
102.076
20
35.617
30
0
0
VERTEX
8
CUT_HOLE
10
102.134
20
35.5
30
0
0
VERTEX
8
CUT_HOLE
10
102.207
20
35.391
30
0
0
VERTEX
8
CUT_HOLE
10
102.293
20
35.293
30
0
0
VERTEX
8
CUT_HOLE
10
102.391
20
35.207
30
0
0
VERTEX
8
CUT_HOLE
10
102.5
20
35.134
30
0
0
VERTEX
8
CUT_HOLE
10
102.617
20
35.076
30
0
0
VERTEX
8
CUT_HOLE
10
102.741
20
35.034
30
0
0
VERTEX
8
CUT_HOLE
10
102.869
20
35.009
30
0
0
VERTEX
8
CUT_HOLE
10
103
20
35
30
0
0
VERTEX
8
CUT_HOLE
10
103.131
20
35.009
30
0
0
VERTEX
8
CUT_HOLE
10
103.259
20
35.034
30
0
0
VERTEX
8
CUT_HOLE
10
103.383
20
35.076
30
0
0
VERTEX
8
CUT_HOLE
10
103.5
20
35.134
30
0
0
VERTEX
8
CUT_HOLE
10
103.609
20
35.207
30
0
0
VERTEX
8
CUT_HOLE
10
103.707
20
35.293
30
0
0
VERTEX
8
CUT_HOLE
10
103.793
20
35.391
30
0
0
VERTEX
8
CUT_HOLE
10
103.866
20
35.5
30
0
0
VERTEX
8
CUT_HOLE
10
103.924
20
35.617
30
0
0
VERTEX
8
CUT_HOLE
10
103.966
20
35.741
30
0
0
VERTEX
8
CUT_HOLE
10
103.991
20
35.869
30
0
0
SEQEND
8
CUT_HOLE
0
ENDSEC
0
EOF
